<svg xmlns="http://www.w3.org/2000/svg" width="24" height="24" viewBox="0 0 24 24">
    <g fill="none" fill-rule="evenodd">
        <path d="M0 24h24V0H0z"/>
        <path fill="#000" d="M21 10.572l-3.15 3.127-1.934-1.93-2.846 2.928 4.85 4.915L21 16.516V22a1 1 0 0 1-1 1H4a1 1 0 0 1-1-1V6.5a.5.5 0 0 1 .5-.5h17a.5.5 0 0 1 .5.5v4.072zM2.5 0h19a.5.5 0 0 1 .5.5v4a.5.5 0 0 1-.5.5h-19a.5.5 0 0 1-.5-.5v-4a.5.5 0 0 1 .5-.5zm7.131 10h4.738c.348 0 .631-.224.631-.5s-.283-.5-.631-.5H9.63C9.283 9 9 9.224 9 9.5s.283.5.631.5z" opacity=".38"/>
        <path stroke="#02952A" d="M15.647 14.342l2.145 2.161 5.688-5.79"/>
    </g>
</svg>
