<svg xmlns="http://www.w3.org/2000/svg" xmlns:xlink="http://www.w3.org/1999/xlink" width="24px" height="24px" viewBox="0 0 24 24" version="1.1">
  <!-- Generator: Sketch 54 (76480) - https://sketchapp.com -->
  <title>Screen template - Desktop HD Copy 2</title>
  <desc>Created with Sketch.</desc>
  <g id="Screen-template---Desktop-HD-Copy-2" stroke="none" stroke-width="1" fill="none" fill-rule="evenodd">
    <g id="Icons/system/dark/ic-record">
      <polygon id="Bounding-box" points="0 24 24 24 24 0 0 0"/>
      <path d="M20,8 L16,8 L16,12 L12,12 L12,18 L16,18 L16,22 L20,22 C20,22.5522847 19.5522847,23 19,23 L3,23 C2.44771525,23 2,22.5522847 2,22 L2,6.5 C2,6.22385763 2.22385763,6 2.5,6 L19.5,6 C19.7761424,6 20,6.22385763 20,6.5 L20,8 Z M1.5,0 L20.5,0 C20.7761424,-5.07265313e-17 21,0.223857625 21,0.5 L21,4.5 C21,4.77614237 20.7761424,5 20.5,5 L1.5,5 C1.22385763,5 1,4.77614237 1,4.5 L1,0.5 C1,0.223857625 1.22385763,5.07265313e-17 1.5,0 Z M8.63125264,10 L13.3687474,10 C13.7173786,10 14,9.77614237 14,9.5 C14,9.22385763 13.7173786,9 13.3687474,9 L8.63125264,9 C8.28262143,9 8,9.22385763 8,9.5 C8,9.77614237 8.28262143,10 8.63125264,10 Z" id="Combined-Shape" fill="#000000" fill-rule="evenodd" opacity="0.54"/>
      <path d="M18,14 L18,10 L20,10 L20,14 L24,14 L24,16 L20,16 L20,20 L18,20 L18,16 L14,16 L14,14 L18,14 Z" id="Combined-Shape" fill="#000000" fill-rule="evenodd" opacity="0.54"/>
    </g>
  </g>
</svg>
